<svg width="156" height="36" viewBox="0 0 156 36" fill="none" xmlns="http://www.w3.org/2000/svg">
<circle cx="18" cy="18" r="18" fill="#5A31F4"/>
<path d="M24.706 14.3086C24.5117 13.8518 24.2285 13.4389 23.873 13.0945C23.1514 12.3924 22.1878 12 21.185 12C20.1823 12 19.2186 12.3924 18.497 13.0945L18.0001 13.5816L17.5031 13.0945C16.7815 12.3924 15.8178 12 14.8151 12C13.8123 12 12.8487 12.3924 12.1271 13.0945C11.7716 13.4389 11.4884 13.8518 11.2941 14.3086C11.1 14.7684 11 15.2629 11 15.7626C11 16.2624 11.1 16.7569 11.2941 17.2167C11.4865 17.6746 11.77 18.0878 12.1271 18.4308L17.6081 23.8376C17.66 23.8863 17.719 23.9268 17.7831 23.9576C17.9223 24.0141 18.0778 24.0141 18.2171 23.9576C18.2811 23.9268 18.3401 23.8863 18.392 23.8376L23.873 18.4308C24.2301 18.086 24.5141 17.6718 24.7078 17.2132C24.9015 16.7546 25.0009 16.2611 25 15.7626C25.0012 15.2628 24.9011 14.768 24.706 14.3086Z" fill="white"/>
<path d="M48.032 13.58V12.3H53.04V13.58H48.032ZM48.032 18.06V16.78H52.88V18.06H48.032ZM47.28 12.3H48.64V23.5H47.28V12.3ZM54.0756 19.82C54.0756 19.0733 54.241 18.412 54.5716 17.836C54.913 17.26 55.3716 16.8067 55.9476 16.476C56.5236 16.1453 57.169 15.98 57.8836 15.98C58.609 15.98 59.2543 16.1453 59.8196 16.476C60.3956 16.8067 60.849 17.26 61.1796 17.836C61.521 18.412 61.6916 19.0733 61.6916 19.82C61.6916 20.556 61.521 21.2173 61.1796 21.804C60.849 22.38 60.3956 22.8333 59.8196 23.164C59.2543 23.4947 58.609 23.66 57.8836 23.66C57.169 23.66 56.5236 23.4947 55.9476 23.164C55.3716 22.8333 54.913 22.38 54.5716 21.804C54.241 21.2173 54.0756 20.556 54.0756 19.82ZM55.3716 19.82C55.3716 20.332 55.4783 20.7853 55.6916 21.18C55.9156 21.5747 56.2143 21.8893 56.5876 22.124C56.9716 22.348 57.4036 22.46 57.8836 22.46C58.3636 22.46 58.7903 22.348 59.1636 22.124C59.5476 21.8893 59.8463 21.5747 60.0596 21.18C60.2836 20.7853 60.3956 20.332 60.3956 19.82C60.3956 19.308 60.2836 18.8547 60.0596 18.46C59.8463 18.0547 59.5476 17.74 59.1636 17.516C58.7903 17.292 58.3636 17.18 57.8836 17.18C57.4036 17.18 56.9716 17.292 56.5876 17.516C56.2143 17.74 55.9156 18.0547 55.6916 18.46C55.4783 18.8547 55.3716 19.308 55.3716 19.82ZM63.45 11.02H64.73V23.5H63.45V11.02ZM67.1375 11.02H68.4175V23.5H67.1375V11.02ZM70.185 19.82C70.185 19.0733 70.3503 18.412 70.681 17.836C71.0223 17.26 71.481 16.8067 72.057 16.476C72.633 16.1453 73.2783 15.98 73.993 15.98C74.7183 15.98 75.3637 16.1453 75.929 16.476C76.505 16.8067 76.9583 17.26 77.289 17.836C77.6303 18.412 77.801 19.0733 77.801 19.82C77.801 20.556 77.6303 21.2173 77.289 21.804C76.9583 22.38 76.505 22.8333 75.929 23.164C75.3637 23.4947 74.7183 23.66 73.993 23.66C73.2783 23.66 72.633 23.4947 72.057 23.164C71.481 22.8333 71.0223 22.38 70.681 21.804C70.3503 21.2173 70.185 20.556 70.185 19.82ZM71.481 19.82C71.481 20.332 71.5877 20.7853 71.801 21.18C72.025 21.5747 72.3237 21.8893 72.697 22.124C73.081 22.348 73.513 22.46 73.993 22.46C74.473 22.46 74.8997 22.348 75.273 22.124C75.657 21.8893 75.9557 21.5747 76.169 21.18C76.393 20.7853 76.505 20.332 76.505 19.82C76.505 19.308 76.393 18.8547 76.169 18.46C75.9557 18.0547 75.657 17.74 75.273 17.516C74.8997 17.292 74.473 17.18 73.993 17.18C73.513 17.18 73.081 17.292 72.697 17.516C72.3237 17.74 72.025 18.0547 71.801 18.46C71.5877 18.8547 71.481 19.308 71.481 19.82ZM78.205 16.14H79.645L81.485 20.924L83.485 15.58L85.629 20.956L87.485 16.14H88.925L85.725 24.06L83.501 18.7L81.405 24.06L78.205 16.14ZM94.3569 19.82C94.3569 19.0733 94.5222 18.412 94.8529 17.836C95.1942 17.26 95.6529 16.8067 96.2289 16.476C96.8049 16.1453 97.4502 15.98 98.1649 15.98C98.8902 15.98 99.5355 16.1453 100.101 16.476C100.677 16.8067 101.13 17.26 101.461 17.836C101.802 18.412 101.973 19.0733 101.973 19.82C101.973 20.556 101.802 21.2173 101.461 21.804C101.13 22.38 100.677 22.8333 100.101 23.164C99.5355 23.4947 98.8902 23.66 98.1649 23.66C97.4502 23.66 96.8049 23.4947 96.2289 23.164C95.6529 22.8333 95.1942 22.38 94.8529 21.804C94.5222 21.2173 94.3569 20.556 94.3569 19.82ZM95.6529 19.82C95.6529 20.332 95.7595 20.7853 95.9729 21.18C96.1969 21.5747 96.4955 21.8893 96.8689 22.124C97.2529 22.348 97.6849 22.46 98.1649 22.46C98.6449 22.46 99.0715 22.348 99.4449 22.124C99.8289 21.8893 100.128 21.5747 100.341 21.18C100.565 20.7853 100.677 20.332 100.677 19.82C100.677 19.308 100.565 18.8547 100.341 18.46C100.128 18.0547 99.8289 17.74 99.4449 17.516C99.0715 17.292 98.6449 17.18 98.1649 17.18C97.6849 17.18 97.2529 17.292 96.8689 17.516C96.4955 17.74 96.1969 18.0547 95.9729 18.46C95.7595 18.8547 95.6529 19.308 95.6529 19.82ZM108.451 19.02C108.451 18.412 108.318 17.9533 108.051 17.644C107.785 17.3347 107.395 17.18 106.883 17.18C106.51 17.18 106.179 17.26 105.891 17.42C105.614 17.5693 105.395 17.7827 105.235 18.06C105.086 18.3373 105.011 18.6573 105.011 19.02V23.5H103.731V16.14H105.011V17.292C105.257 16.844 105.561 16.5133 105.923 16.3C106.297 16.0867 106.723 15.98 107.203 15.98C107.982 15.98 108.595 16.2413 109.043 16.764C109.502 17.276 109.731 17.9747 109.731 18.86V23.5H108.451V19.02Z" fill="#555555"/>
<path fill-rule="evenodd" clip-rule="evenodd" d="M148.507 14.676C149.14 13.8897 150.123 13.2378 151.295 13.2378C153.928 13.2378 156.002 15.427 156 18.1283C156 20.9428 153.916 23.0258 151.415 23.0258C150.086 23.0258 149.068 22.3422 148.696 21.7718H148.661V25.9059C148.661 25.9309 148.651 25.9547 148.633 25.9723C148.616 25.9899 148.592 25.9998 148.567 25.9998H146.224C146.198 25.9998 146.175 25.9901 146.157 25.9724C146.139 25.9548 146.129 25.9311 146.128 25.9059V13.3301C146.128 13.3048 146.138 13.2804 146.156 13.2625C146.174 13.2446 146.198 13.2345 146.224 13.2345H148.414C148.439 13.235 148.462 13.2452 148.48 13.2631C148.497 13.281 148.507 13.3051 148.507 13.3301V14.676H148.507ZM151.095 20.629C150.901 20.6352 150.705 20.6185 150.513 20.5785C150.029 20.4779 149.586 20.2346 149.24 19.8796C148.895 19.5247 148.662 19.0743 148.573 18.5859C148.547 18.4456 148.533 18.3039 148.532 18.1627C148.53 18.0043 148.543 17.8453 148.572 17.6881C148.66 17.2001 148.891 16.7496 149.236 16.3942C149.58 16.0388 150.022 15.7944 150.505 15.6923C150.699 15.6514 150.895 15.6341 151.091 15.6401C151.409 15.644 151.723 15.7102 152.015 15.8351C152.312 15.9617 152.58 16.1459 152.806 16.3774C153.031 16.6087 153.208 16.8825 153.328 17.1831C153.447 17.4836 153.506 17.8049 153.501 18.1286C153.506 18.4527 153.448 18.775 153.328 19.0763C153.209 19.3776 153.032 19.6524 152.807 19.8848C152.582 20.1173 152.313 20.3027 152.016 20.4304C151.725 20.5556 151.412 20.6232 151.095 20.629Z" fill="#111111"/>
<path d="M133.293 15.1188C132.751 13.9782 131.725 13.2413 130.178 13.2413C129.704 13.2497 129.237 13.3673 128.815 13.5854C128.393 13.8034 128.026 14.1161 127.743 14.4989L127.687 14.5679V10.0974C127.687 10.0716 127.677 10.0467 127.658 10.0285C127.64 10.0102 127.615 10 127.59 10H125.403C125.378 10.0005 125.353 10.011 125.336 10.0291C125.318 10.0473 125.308 10.0719 125.308 10.0974V22.9212C125.308 22.9465 125.318 22.9709 125.336 22.9888C125.354 23.0067 125.378 23.0168 125.403 23.0168H127.745C127.77 23.0168 127.795 23.0067 127.813 22.989C127.831 22.971 127.841 22.9468 127.842 22.9212V17.4534C127.842 16.3905 128.547 15.6378 129.676 15.6378C130.91 15.6378 131.222 16.658 131.222 17.6978V22.9212C131.222 22.9465 131.232 22.9709 131.25 22.9888C131.268 23.0067 131.292 23.0168 131.317 23.0168H133.654C133.679 23.0168 133.704 23.0067 133.722 22.989C133.74 22.971 133.75 22.9468 133.751 22.9212V17.386C133.751 17.1965 133.751 17.0105 133.726 16.8299C133.686 16.2378 133.539 15.658 133.293 15.1188Z" fill="#111111"/>
<path d="M121.599 17.0194C121.599 17.0194 120.407 16.7378 119.968 16.6245C119.529 16.5111 118.762 16.2702 118.762 15.6875C118.762 15.1048 119.381 14.9188 120.009 14.9188C120.637 14.9188 121.335 15.0712 121.389 15.7707C121.392 15.7959 121.403 15.8193 121.422 15.8364C121.44 15.8534 121.465 15.8629 121.49 15.8629L123.798 15.8541C123.812 15.8541 123.825 15.8514 123.838 15.8459C123.85 15.8404 123.861 15.8325 123.87 15.8226C123.88 15.8127 123.887 15.8009 123.891 15.788C123.896 15.7751 123.898 15.7614 123.897 15.7479C123.754 13.509 121.798 12.7085 119.994 12.7085C117.855 12.7085 116.291 14.1255 116.291 15.6877C116.291 16.8283 116.612 17.8981 119.135 18.6421C119.578 18.7714 120.179 18.9397 120.705 19.0867C121.336 19.2638 121.677 19.5314 121.677 19.9528C121.677 20.4416 120.971 20.7818 120.278 20.7818C119.275 20.7818 118.562 20.4081 118.504 19.7367C118.501 19.7122 118.489 19.6896 118.471 19.6732C118.452 19.6569 118.428 19.648 118.404 19.6482L116.101 19.6589C116.087 19.6589 116.074 19.6616 116.061 19.6669C116.049 19.6723 116.038 19.68 116.028 19.6897C116.019 19.6995 116.011 19.711 116.007 19.7237C116.002 19.7364 116 19.7498 116 19.7635C116.106 21.8766 118.137 23.0155 120.031 23.0155C122.853 23.0155 124.128 21.4214 124.128 19.9283C124.131 19.2264 123.971 17.6289 121.599 17.0194Z" fill="#111111"/>
<path d="M139.193 12.6852C137.008 12.6852 135.918 13.431 135.043 14.0278L135.017 14.0456C134.972 14.0766 134.94 14.1236 134.928 14.177C134.916 14.2305 134.924 14.2867 134.952 14.3343L135.816 15.8292C135.832 15.8572 135.854 15.8812 135.881 15.8995C135.907 15.9179 135.938 15.9301 135.969 15.9353C136 15.941 136.032 15.9396 136.063 15.9314C136.093 15.9231 136.122 15.9081 136.145 15.8875L136.214 15.8309C136.664 15.4519 137.385 14.9453 139.131 14.8071C140.103 14.7292 140.942 14.9842 141.561 15.5651C142.242 16.1956 142.649 17.2141 142.649 18.2894C142.649 20.2678 141.489 21.5112 139.625 21.536C138.089 21.5272 137.057 20.7231 137.057 19.5345C137.057 18.904 137.341 18.493 137.895 18.0821C137.937 18.0517 137.967 18.0071 137.979 17.9563C137.991 17.9055 137.984 17.852 137.96 17.8059L137.184 16.3323C137.17 16.3059 137.151 16.2826 137.127 16.2637C137.104 16.2448 137.077 16.2308 137.048 16.2223C137.019 16.2135 136.988 16.211 136.958 16.2151C136.927 16.219 136.898 16.2294 136.872 16.2455C136.001 16.7645 134.932 17.7137 134.99 19.5382C135.061 21.8603 136.983 23.6334 139.482 23.7059H139.607H139.778C142.748 23.6085 144.892 21.3945 144.892 18.3922C144.892 15.636 142.892 12.6852 139.193 12.6852Z" fill="#111111"/>
</svg>
